<svg width="103" height="104" viewBox="0 0 103 104" fill="none" xmlns="http://www.w3.org/2000/svg">
<g clip-path="url(#clip0_2_157)">
<path d="M51.1598 101.997C79.0205 101.997 101.606 79.4112 101.606 51.5506C101.606 23.6899 79.0205 1.10437 51.1598 1.10437C23.2992 1.10437 0.713623 23.6899 0.713623 51.5506C0.713623 79.4112 23.2992 101.997 51.1598 101.997Z" fill="white"/>
<path d="M51.1599 102.711C22.9535 102.711 0 79.757 0 51.5505C0 23.3441 22.9535 0.390625 51.1599 0.390625C79.3664 0.390625 102.32 23.3441 102.32 51.5505C102.32 79.757 79.3664 102.711 51.1599 102.711ZM51.1599 1.81807C23.7386 1.81807 1.42745 24.1292 1.42745 51.5505C1.42745 78.9719 23.7386 101.283 51.1599 101.283C78.5813 101.283 100.892 78.9719 100.892 51.5505C100.892 24.1292 78.5813 1.81807 51.1599 1.81807Z" fill="#292F36"/>
<path d="M58.3543 6.2289C58.6969 6.25745 58.9967 6.27172 59.2394 6.27172L59.2108 6.50012C58.8111 6.55721 58.4685 6.85698 58.1973 7.42796L54.8 14.2226L54.7001 14.2083L54.6144 14.1941L52.459 6.61431C52.3162 6.1147 52.0735 5.84349 51.731 5.80066L51.7595 5.57227C52.0735 5.62937 52.4875 5.67219 53.0014 5.72929C53.6723 5.78639 54.1719 5.82921 54.5002 5.82921L54.4717 6.0576C54.1719 6.04333 53.9578 6.0576 53.8293 6.10043C53.7008 6.14325 53.6295 6.25745 53.6152 6.40019C53.6009 6.52866 53.6295 6.71423 53.7008 6.9569L55.2853 12.7523L57.6406 8.01322C57.8405 7.6278 57.9404 7.31376 57.9689 7.08537C57.9975 6.8427 57.9261 6.65714 57.7691 6.52866C57.6121 6.40019 57.3551 6.32882 57.0125 6.286L57.0411 6.0576C57.455 6.12898 57.8976 6.18608 58.3543 6.2289Z" fill="#292F36"/>
<path d="M67.9466 9.24091C67.8039 9.24091 67.6897 9.298 67.6041 9.4122C67.5184 9.5264 67.4185 9.71197 67.3186 9.98318L65.2773 15.4075C65.1774 15.6787 65.1203 15.8928 65.1203 16.0356C65.1203 16.1783 65.1631 16.2925 65.263 16.3781C65.363 16.4638 65.5485 16.5637 65.8055 16.6779L65.7198 16.892C65.3915 16.7493 64.9347 16.5637 64.3495 16.3353C63.7214 16.0927 63.2503 15.9356 62.9363 15.8357L63.0219 15.6216C63.2931 15.7072 63.493 15.7501 63.6215 15.7501C63.7499 15.7501 63.8784 15.693 63.964 15.5788C64.0497 15.4646 64.1496 15.279 64.2495 15.0078L66.2908 9.58349C66.3907 9.31228 66.4478 9.09816 66.4478 8.95542C66.4478 8.81267 66.405 8.69847 66.3051 8.61283C66.2051 8.52718 66.0196 8.42726 65.7626 8.31306L65.8483 8.09894C66.1481 8.22741 66.6048 8.41298 67.2329 8.65565C67.8182 8.88404 68.2892 9.04106 68.6318 9.14098L68.5462 9.3551C68.2892 9.26946 68.0894 9.22663 67.9466 9.24091Z" fill="#292F36"/>
<path d="M80.651 16.792C80.5083 16.7635 80.3655 16.8063 80.2371 16.892C80.1086 16.9776 79.9516 17.1489 79.7803 17.3916L75.6407 23.0015L75.4266 22.8444L75.9833 13.8229L72.3147 18.7905C72.1434 19.0331 72.0292 19.233 71.9721 19.39C71.915 19.547 71.9436 19.6898 72.0149 19.8325C72.0863 19.9753 72.2576 20.1323 72.5003 20.3321L72.3575 20.5177C72.1434 20.3321 71.8294 20.0895 71.4154 19.7754C71.0443 19.5042 70.7445 19.2901 70.5161 19.1616L70.6589 18.976C70.8872 19.1331 71.0728 19.2187 71.2156 19.233C71.3583 19.2615 71.5011 19.2187 71.6295 19.1331C71.758 19.0331 71.915 18.8761 72.0863 18.6335L75.4551 14.0656C75.6264 13.8229 75.7406 13.6374 75.7834 13.5089C75.8262 13.3804 75.812 13.252 75.7406 13.1378C75.6692 13.0236 75.5265 12.8808 75.2981 12.6952L75.4408 12.5097C75.6264 12.681 75.9119 12.9094 76.2973 13.1806C76.5828 13.3947 76.8255 13.566 77.0538 13.6945L76.5971 21.26L79.5662 17.2346C79.7375 16.9919 79.8659 16.792 79.9088 16.635C79.9516 16.478 79.9373 16.3353 79.8659 16.1925C79.7946 16.0498 79.6233 15.8785 79.3806 15.6929L79.5233 15.5073C79.7375 15.6929 80.0515 15.9356 80.4655 16.2496C80.8366 16.5208 81.1364 16.7349 81.3648 16.8634L81.222 17.049C80.9793 16.9062 80.7938 16.8063 80.651 16.792Z" fill="#292F36"/>
<path d="M85.433 23.2298C85.8042 22.9586 86.1896 22.6588 86.6035 22.2877C86.9604 22.8301 87.5885 23.7294 88.4878 24.9999C89.3871 26.256 90.0294 27.141 90.4149 27.6549C89.9295 27.9404 89.5156 28.1974 89.1444 28.4543C88.8304 28.6827 88.5734 28.8825 88.3879 29.0395L88.2309 28.8254C88.6876 28.4257 89.0017 28.0974 89.1872 27.8548C89.3728 27.6121 89.4442 27.3552 89.4299 27.0839C89.4156 26.8127 89.2443 26.4844 88.9731 26.0847L88.602 25.5708L83.1919 29.425C82.935 29.6105 82.7494 29.7818 82.6638 29.9103C82.5781 30.0388 82.5496 30.1958 82.6067 30.3671C82.6495 30.5241 82.778 30.7525 82.9635 31.038L82.778 31.1807C82.5639 30.8381 82.2355 30.3528 81.8073 29.7676C81.3505 29.1252 81.0079 28.6684 80.7795 28.3829L80.9651 28.2402C81.1792 28.5114 81.3505 28.697 81.4933 28.7969C81.636 28.8968 81.7788 28.9254 81.9358 28.8825C82.0928 28.8397 82.3069 28.7255 82.5639 28.5399L87.9739 24.6858L87.6028 24.1719C87.3173 23.7722 87.0603 23.5296 86.8177 23.4154C86.575 23.3012 86.3038 23.2869 86.0183 23.3868C85.7328 23.4868 85.3188 23.6723 84.7907 23.9721L84.6337 23.758C84.8478 23.6438 85.1047 23.4725 85.433 23.2298Z" fill="#292F36"/>
<path d="M88.1736 43.043L87.9452 43.1143C87.8596 42.8003 87.7454 42.4006 87.5741 41.9153C87.36 41.2872 87.1887 40.8161 87.0602 40.5021L87.2886 40.4307C87.3885 40.7019 87.5027 40.9018 87.5884 41.0017C87.6883 41.1016 87.8168 41.1302 87.9595 41.0731C88.088 41.0302 88.245 40.9303 88.4306 40.7733L90.015 39.4743L89.1157 36.805L87.7882 36.7479C87.36 36.7193 87.0317 36.7479 86.8033 36.8335C86.5749 36.9192 86.4321 37.0476 86.375 37.2332C86.3322 37.4188 86.3608 37.69 86.4607 38.0183L86.2323 38.0897C86.1181 37.6615 85.9753 37.2332 85.8326 36.805C85.7184 36.4767 85.6185 36.2055 85.5186 35.9913L85.7469 35.92C85.9468 36.2625 86.375 36.4481 87.0031 36.4624L94.5972 36.805L94.6543 36.9763L88.6019 42.0152C88.2307 42.372 88.088 42.7004 88.1736 43.043ZM93.1269 36.9763L89.387 36.8193L90.2292 39.3316L93.1269 36.9763Z" fill="#292F36"/>
<path d="M89.2159 53.963C89.3586 53.9059 89.43 53.8345 89.43 53.7346C89.43 53.6775 89.4157 53.6347 89.3872 53.5919C89.3586 53.549 89.3015 53.4634 89.2159 53.3492C89.0018 53.078 88.8447 52.7925 88.7305 52.507C88.6163 52.2215 88.5592 51.8932 88.5592 51.5363C88.545 50.737 88.702 50.0518 89.016 49.4665C89.3443 48.8813 89.8011 48.4387 90.4292 48.1247C91.043 47.8107 91.7853 47.6536 92.656 47.6394C93.5553 47.6251 94.3404 47.7678 95.0113 48.0819C95.6822 48.3959 96.2104 48.8242 96.5815 49.3951C96.9527 49.9661 97.1525 50.6085 97.1525 51.3222C97.1525 51.6362 97.124 51.9217 97.0669 52.1644C97.0098 52.4071 96.9241 52.6212 96.8242 52.8068C96.7243 52.9923 96.5958 53.2064 96.4245 53.4348C96.3531 53.5348 96.3103 53.6204 96.3103 53.6775C96.3103 53.8203 96.553 53.9202 97.024 53.963V54.2342C96.5244 54.2057 95.6251 54.2057 94.3404 54.2342V53.963C94.7544 53.8916 95.097 53.806 95.3682 53.7203C95.6394 53.6347 95.8678 53.5062 96.0677 53.3492C96.3389 53.1208 96.5673 52.821 96.7243 52.4499C96.8813 52.0788 96.9527 51.7076 96.9527 51.3079C96.9384 50.794 96.7671 50.3515 96.4245 49.9661C96.0819 49.5807 95.5966 49.2952 94.9828 49.0811C94.3547 48.8813 93.641 48.7813 92.813 48.7956C91.8709 48.8099 91.1144 48.9241 90.5149 49.1382C89.9153 49.3523 89.4871 49.6664 89.2016 50.0803C88.9161 50.4943 88.7876 51.0224 88.8019 51.6648C88.8162 52.1359 88.9447 52.5355 89.1873 52.8781C89.2872 53.0209 89.3729 53.1065 89.4728 53.1493C89.5585 53.1922 89.6869 53.2064 89.8439 53.2064L90.9716 53.1922C91.3 53.1922 91.5283 53.1493 91.6854 53.0922C91.8281 53.0351 91.9423 52.921 91.9851 52.7497C92.0422 52.5926 92.0708 52.3357 92.0708 51.9931H92.2992C92.2849 52.3785 92.2706 52.921 92.2849 53.649C92.2992 54.1914 92.3134 54.6053 92.342 54.8623H92.1136C92.0993 54.6767 92.0565 54.5483 92.0137 54.4769C91.9709 54.4055 91.8709 54.3484 91.7425 54.3199C91.614 54.2913 91.3999 54.277 91.1001 54.2913L88.7876 54.3341V54.1057C88.9161 54.0486 89.0731 54.0201 89.2159 53.963Z" fill="#292F36"/>
<path d="M87.517 66.1106C87.1031 65.9821 86.6177 65.8536 86.061 65.7394C86.2466 65.2398 86.5178 64.3976 86.9032 63.1985C87.36 61.7711 87.6883 60.6862 87.8882 59.9582L88.1166 60.0296C88.0452 60.3008 88.0166 60.5007 88.0166 60.6434C88.0309 60.7861 88.088 60.8861 88.2022 60.9717C88.3164 61.0574 88.5163 61.143 88.7875 61.2287L94.3117 62.9702C94.5972 63.0558 94.7971 63.0986 94.9398 63.0986C95.0825 63.0986 95.1967 63.0415 95.2824 62.9273C95.368 62.8131 95.4537 62.6276 95.5536 62.3706L95.782 62.442C95.525 63.17 95.1825 64.2406 94.7257 65.668C94.3831 66.7529 94.1404 67.538 94.0262 68.0091C93.5552 67.8092 93.1269 67.6379 92.7272 67.5237C92.4417 67.4381 92.1991 67.3667 92.0278 67.3382L92.1134 67.0812C92.613 67.1811 92.9985 67.224 93.2554 67.224C93.5123 67.224 93.7265 67.1383 93.8978 66.967C94.069 66.81 94.2118 66.5245 94.3403 66.1391L94.6258 65.2113C94.7114 64.94 94.7542 64.7402 94.74 64.6117C94.7257 64.4833 94.6829 64.3691 94.5687 64.2834C94.4545 64.1978 94.2689 64.1121 93.9834 64.0265L91.3569 63.1985L91.1285 63.9408C91.0143 64.312 91.0428 64.5975 91.2284 64.7973C91.414 64.9971 91.6138 65.1399 91.8422 65.2398C92.0706 65.3397 92.2134 65.4111 92.2705 65.4396L92.1848 65.6966C91.8279 65.5538 91.4854 65.4254 91.1428 65.3255L90.6146 65.1684C90.2435 65.0542 89.701 64.8972 89.0159 64.7402L89.1015 64.4833C89.1586 64.4975 89.3442 64.5261 89.6582 64.5975C89.9723 64.6545 90.2435 64.626 90.4576 64.5118C90.6717 64.3976 90.8145 64.1835 90.9144 63.8837L91.1428 63.1414L88.4592 62.2993C88.1737 62.2136 87.9738 62.1708 87.8311 62.1708C87.6883 62.1708 87.5741 62.2279 87.5028 62.3421C87.4171 62.4563 87.3315 62.6418 87.2458 62.9131L86.9889 63.7267C86.8461 64.1978 86.789 64.5689 86.8461 64.8401C86.889 65.1256 87.0317 65.354 87.2744 65.5538C87.517 65.7394 87.8882 65.9535 88.3878 66.1819L88.3021 66.4389C88.1308 66.3104 87.8596 66.2248 87.517 66.1106Z" fill="#292F36"/>
<path d="M83.4489 83.6254C83.506 83.497 83.4918 83.3685 83.4347 83.24C83.3776 83.1115 83.2348 82.9545 83.0207 82.7404L78.824 78.7293C78.6099 78.5294 78.4386 78.401 78.3101 78.3439C78.1816 78.2868 78.0532 78.2868 77.9247 78.3439C77.7962 78.401 77.6392 78.5294 77.4394 78.7293L77.2681 78.5722C77.5393 78.3296 77.8819 77.9727 78.3244 77.5302C78.7812 77.0449 79.1238 76.6737 79.3379 76.4311L79.5092 76.5881C79.3236 76.8022 79.2094 76.9735 79.1523 77.0877C79.0952 77.2162 79.1095 77.3446 79.1666 77.4731C79.2237 77.6016 79.3664 77.7586 79.5805 77.9727L83.7773 81.9839C83.9914 82.1837 84.1627 82.3122 84.2911 82.3693C84.4196 82.4264 84.5481 82.4264 84.6765 82.3693C84.805 82.3122 84.962 82.1837 85.1619 81.9839L85.3332 82.1409C85.0905 82.355 84.7336 82.7119 84.2769 83.1972C83.8344 83.654 83.506 84.0251 83.2776 84.2963L83.1064 84.1393C83.2776 83.9252 83.3918 83.7539 83.4489 83.6254Z" fill="#292F36"/>
<path d="M71.5582 92.3328C71.6438 92.2044 71.6581 92.0759 71.6295 91.9189C71.601 91.7619 71.5011 91.562 71.344 91.2908L67.804 85.2812L68.0323 85.1385L76.1117 89.1782L72.9856 83.868C72.8286 83.6111 72.7001 83.4255 72.5717 83.3256C72.4432 83.2257 72.3004 83.1829 72.1434 83.1971C71.9864 83.2114 71.7723 83.2971 71.5011 83.4398L71.3726 83.24C71.6295 83.1258 71.9721 82.9259 72.4146 82.669C72.8143 82.4263 73.1141 82.2407 73.3282 82.0837L73.4424 82.2836C73.214 82.4263 73.057 82.569 72.9856 82.6975C72.9 82.826 72.8857 82.9545 72.9142 83.1115C72.9428 83.2685 73.0427 83.4683 73.1997 83.7396L76.0832 88.6357C76.2259 88.8927 76.3544 89.064 76.4686 89.1496C76.5828 89.2353 76.697 89.2781 76.8397 89.2495C76.9682 89.221 77.168 89.1496 77.4107 89.0211L77.5249 89.221C77.2965 89.3352 76.9825 89.5065 76.5685 89.7491C76.2688 89.9204 76.0118 90.0917 75.7977 90.2345L69.0173 86.8514L71.5582 91.1623C71.7152 91.4193 71.8436 91.6048 71.9721 91.7048C72.0863 91.8047 72.2291 91.8475 72.4004 91.8332C72.5717 91.8189 72.7858 91.7333 73.057 91.5906L73.1712 91.7904C72.9142 91.9046 72.5716 92.1044 72.1291 92.3614C71.7295 92.604 71.4297 92.7896 71.2156 92.9466L71.1014 92.7468C71.3155 92.5898 71.4725 92.447 71.5582 92.3328Z" fill="#292F36"/>
<path d="M63.7072 94.2029C63.8071 94.6455 63.9356 95.1308 64.1069 95.6447C63.4645 95.7589 62.3939 95.9873 60.8808 96.3013C59.3677 96.6296 58.3114 96.8723 57.6833 97.0293C57.612 96.4726 57.5406 95.9873 57.4407 95.5448C57.355 95.1593 57.2836 94.8453 57.198 94.6169L57.4549 94.5598C57.6405 95.1451 57.8118 95.559 57.9688 95.8302C58.1258 96.1015 58.3257 96.2728 58.5826 96.3584C58.8396 96.444 59.2107 96.4298 59.6818 96.3298L60.2956 96.2014L58.8967 89.7065C58.8253 89.3924 58.7539 89.164 58.654 89.0356C58.5541 88.9071 58.4399 88.8214 58.2686 88.8072C58.0973 88.7786 57.8404 88.8072 57.4978 88.8643L57.4549 88.6359C57.8546 88.5788 58.4256 88.4646 59.1393 88.3076C59.8959 88.1363 60.4669 88.0078 60.8237 87.9079L60.8666 88.1363C60.524 88.2219 60.2956 88.3076 60.1528 88.3932C60.0101 88.4789 59.9244 88.6073 59.8959 88.7643C59.8673 88.9214 59.8816 89.164 59.953 89.4781L61.3519 95.973L61.9657 95.8445C62.4368 95.7446 62.7793 95.6018 62.9792 95.4163C63.179 95.2307 63.2932 94.988 63.3218 94.6883C63.3503 94.3885 63.336 93.9317 63.2647 93.3322L63.5216 93.2751C63.5644 93.5035 63.6215 93.8175 63.7072 94.2029Z" fill="#292F36"/>
<path d="M44.7648 90.1917C44.8076 89.7492 44.8219 89.2496 44.8219 88.6928C45.35 88.7642 46.2351 88.8499 47.4912 88.9641C48.9758 89.0925 50.1035 89.1925 50.8743 89.2353L50.86 89.4637C50.5745 89.4494 50.3747 89.4637 50.2462 89.5065C50.1177 89.5493 50.0178 89.6207 49.9607 89.7492C49.9036 89.8776 49.8608 90.0918 49.8323 90.3772L49.3184 96.1584C49.2898 96.4439 49.3041 96.658 49.3326 96.8008C49.3612 96.9435 49.4468 97.0434 49.5753 97.1005C49.7038 97.1576 49.9036 97.2147 50.1748 97.2433L50.1606 97.4717C49.404 97.386 48.2763 97.2718 46.7918 97.1434C45.6498 97.0434 44.8362 96.9864 44.3508 96.9578C44.4508 96.4582 44.5221 96.0014 44.5507 95.5874C44.5792 95.2877 44.5935 95.045 44.5792 94.8594L44.8504 94.888C44.8647 95.4019 44.8933 95.773 44.9646 96.03C45.0217 96.2869 45.1502 96.4725 45.35 96.6009C45.5356 96.7294 45.8497 96.8151 46.2493 96.8436L47.22 96.9292C47.5055 96.9578 47.7053 96.9435 47.8338 96.915C47.9623 96.8864 48.0622 96.8008 48.1193 96.6723C48.1764 96.5438 48.2192 96.3297 48.2478 96.0442L48.4904 93.3035L47.7196 93.2321C47.3342 93.2036 47.063 93.2892 46.906 93.5176C46.7632 93.746 46.649 93.9744 46.6062 94.2171C46.5491 94.4598 46.5206 94.6168 46.5063 94.6881L46.2351 94.6596C46.2922 94.2742 46.335 93.9173 46.3778 93.5605L46.4206 93.0038C46.4492 92.6041 46.4777 92.0616 46.5063 91.3479L46.7775 91.3765C46.7775 91.4336 46.7918 91.6191 46.7918 91.9474C46.806 92.2758 46.8774 92.5327 47.0487 92.704C47.2057 92.8896 47.4484 92.9895 47.7624 93.018L48.5333 93.0894L48.7759 90.2916C48.8045 90.0061 48.7902 89.792 48.7617 89.6492C48.7331 89.5208 48.6475 89.4208 48.519 89.3638C48.3905 89.3067 48.1907 89.2638 47.9195 89.2353L47.063 89.1639C46.5777 89.1211 46.2065 89.1496 45.9353 89.2638C45.6784 89.3637 45.4785 89.5636 45.3358 89.8348C45.193 90.106 45.0788 90.52 44.9646 91.0624L44.6934 91.0339C44.6934 90.8198 44.722 90.5343 44.7648 90.1917Z" fill="#292F36"/>
<path d="M33.5308 84.8958C33.7449 84.853 33.9875 84.8958 34.2445 85.01C34.5443 85.1385 34.7441 85.3241 34.8583 85.5667C34.9725 85.8237 34.9868 86.1805 34.9154 86.6516L34.7013 87.8221C34.6299 88.2361 34.5871 88.5501 34.5728 88.7928C34.5585 89.0212 34.6156 89.2353 34.7155 89.4209C34.8155 89.6064 35.001 89.7492 35.2723 89.8634L36.3 90.2916L37.3421 87.8078C37.4563 87.5366 37.5134 87.3368 37.5276 87.194C37.5419 87.0513 37.4848 86.9371 37.3849 86.8372C37.285 86.7373 37.1137 86.6373 36.8567 86.5231L36.9424 86.309C37.2707 86.466 37.7132 86.6659 38.2985 86.9086C38.9123 87.1655 39.3833 87.3511 39.6974 87.451L39.6117 87.6651C39.3405 87.5652 39.1407 87.5224 39.0122 87.5081C38.8694 87.5081 38.7552 87.5509 38.6696 87.6651C38.5697 87.765 38.4698 87.9506 38.3556 88.2218L36.1145 93.5748C36.0003 93.846 35.9432 94.0458 35.9289 94.1886C35.9146 94.3313 35.9717 94.4455 36.0716 94.5454C36.1716 94.6453 36.3428 94.7453 36.5998 94.8737L36.5141 95.0879C36.2144 94.9451 35.7861 94.7453 35.2152 94.5026C34.9297 94.3884 34.6299 94.2599 34.2873 94.1172C33.9447 93.9745 33.7163 93.8888 33.5879 93.8317C33.0312 93.589 32.5886 93.3178 32.2603 92.9895C31.932 92.6612 31.7464 92.3186 31.6608 91.9475C31.5752 91.5763 31.618 91.2195 31.775 90.8626C31.8892 90.5771 32.0748 90.3202 32.3317 90.0918C32.5886 89.8634 32.917 89.6921 33.3166 89.6064C33.7163 89.5208 34.2017 89.5351 34.7298 89.6635L34.6014 89.5922C34.3016 89.4066 34.0732 89.221 33.9305 89.0212C33.7877 88.8356 33.6878 88.6215 33.6592 88.3931C33.6164 88.1647 33.6307 87.8792 33.6878 87.5366L33.8876 86.3233C33.9304 86.0806 33.959 85.8951 33.959 85.7523C33.959 85.6096 33.9447 85.4954 33.9019 85.4097C33.8591 85.3241 33.7877 85.2527 33.6878 85.2242C33.5736 85.1671 33.4594 85.1671 33.3595 85.1956C33.2595 85.2242 33.1168 85.2955 32.9312 85.3954L32.817 85.2099C33.074 85.0529 33.3166 84.9387 33.5308 84.8958ZM34.2445 89.9776C33.9019 90.0204 33.6307 90.1489 33.4166 90.363C33.2024 90.5771 33.0169 90.8626 32.8599 91.2337C32.6172 91.819 32.5601 92.3329 32.7171 92.7468C32.8741 93.1608 33.2595 93.5034 33.9019 93.7746C34.1303 93.8745 34.3016 93.9174 34.4443 93.9031C34.5728 93.9031 34.687 93.846 34.7869 93.7318C34.8868 93.6176 34.9868 93.432 35.0867 93.1751L36.2001 90.52L35.4721 90.2202C35.001 90.0204 34.5871 89.9347 34.2445 89.9776Z" fill="#292F36"/>
<path d="M22.3966 86.8372C22.5251 86.88 22.6535 86.8515 22.7677 86.7801C22.8819 86.7087 23.039 86.5517 23.2245 86.3233L26.8074 81.7555C26.993 81.5271 27.1072 81.3415 27.15 81.2131C27.1928 81.0846 27.1786 80.9561 27.1072 80.8419C27.0358 80.7277 26.8931 80.5707 26.679 80.3851L26.8217 80.1996C27.0929 80.4422 27.4641 80.7563 27.9637 81.1417C28.4918 81.5556 28.8915 81.8554 29.1627 82.041L29.02 82.2265C28.7916 82.0553 28.606 81.9553 28.4776 81.9268C28.3491 81.884 28.2206 81.8982 28.1064 81.9839C27.9922 82.0552 27.8352 82.2123 27.6496 82.4407L24.0667 87.0085C23.8812 87.2369 23.767 87.4225 23.7241 87.5509C23.6813 87.6794 23.6956 87.8079 23.767 87.9221C23.8383 88.0363 23.9811 88.1933 24.1952 88.3789L24.0524 88.5644C23.8098 88.3503 23.4244 88.0363 22.8962 87.608C22.3966 87.2226 21.9969 86.9229 21.7114 86.723L21.8542 86.5375C22.0968 86.6945 22.2681 86.7944 22.3966 86.8372Z" fill="#292F36"/>
<path d="M13.1754 76.6738C13.1183 76.0315 13.261 75.3891 13.5893 74.7753C13.9319 74.1472 14.4458 73.5905 15.1595 73.0623C15.859 72.5627 16.5584 72.2344 17.2864 72.106C18.0144 71.9775 18.6853 72.0203 19.3134 72.263C19.9415 72.5056 20.4697 72.9196 20.8836 73.5049C21.3261 74.1044 21.5688 74.7325 21.6259 75.3748C21.683 76.0172 21.5402 76.6595 21.2119 77.2733C20.8693 77.9014 20.3555 78.4581 19.6417 78.9863C18.9423 79.4859 18.2428 79.8142 17.5148 79.9427C16.8011 80.0711 16.1159 80.0283 15.4878 79.7857C14.8598 79.543 14.3316 79.129 13.9176 78.558C13.4751 77.9442 13.2325 77.3162 13.1754 76.6738ZM15.3165 79.2147C15.8162 79.3146 16.3871 79.2718 17.0152 79.0719C17.6433 78.8721 18.2714 78.5438 18.928 78.0584C19.5846 77.5874 20.0985 77.0735 20.4554 76.5311C20.8265 75.9886 21.0264 75.4462 21.0549 74.9323C21.0977 74.4184 20.9693 73.9616 20.698 73.5762C20.3983 73.1765 20.0129 72.9196 19.499 72.8197C18.9994 72.7198 18.4284 72.7626 17.8003 72.9624C17.1722 73.1623 16.5442 73.4906 15.8875 73.9616C15.2309 74.4327 14.717 74.9466 14.3602 75.5033C13.989 76.0457 13.7892 76.5739 13.7463 77.102C13.7035 77.6159 13.832 78.0727 14.1032 78.4581C14.403 78.8578 14.8027 79.1148 15.3165 79.2147Z" fill="#292F36"/>
<path d="M14.2745 59.4872C14.4458 59.6157 14.5742 59.8298 14.6599 60.1153C14.7598 60.4151 14.7455 60.7006 14.6313 60.9432C14.5171 61.2002 14.2459 61.4428 13.832 61.6855L12.7899 62.2707C12.4331 62.4849 12.1618 62.6562 11.9763 62.7989C11.7907 62.9417 11.6622 63.113 11.5909 63.3128C11.5195 63.5126 11.5195 63.741 11.6051 64.0265L11.9335 65.0971L14.5029 64.2977C14.7884 64.2121 14.9739 64.1264 15.0881 64.0408C15.2023 63.9551 15.2594 63.841 15.2737 63.7125C15.288 63.584 15.2451 63.3699 15.1738 63.0987L15.4022 63.0273C15.4878 63.3699 15.6163 63.8552 15.8161 64.4548C16.016 65.0971 16.173 65.5682 16.2872 65.8679L16.0588 65.9393C15.9589 65.6681 15.8732 65.4825 15.7876 65.3826C15.7019 65.2827 15.5877 65.2113 15.445 65.2113C15.3022 65.2113 15.0881 65.2399 14.8169 65.3398L9.27839 67.0527C8.9929 67.1384 8.80733 67.224 8.69313 67.3097C8.57894 67.3953 8.52184 67.5095 8.50756 67.638C8.49329 67.7807 8.53611 67.9806 8.60748 68.2518L8.37909 68.3232C8.30772 68.0091 8.17925 67.5523 7.99368 66.9528C7.90803 66.6673 7.79384 66.339 7.67964 65.9964C7.56544 65.6538 7.4798 65.4111 7.43697 65.2827C7.2514 64.6974 7.19431 64.1835 7.23713 63.7268C7.27995 63.27 7.4227 62.8988 7.65109 62.5991C7.87948 62.2993 8.17925 62.0995 8.55039 61.9853C8.83588 61.8996 9.14992 61.8711 9.49251 61.9139C9.83509 61.9567 10.1634 62.0995 10.506 62.3564C10.8486 62.6133 11.1341 62.9845 11.3767 63.4841L11.3625 63.3413C11.3196 62.9845 11.3054 62.699 11.3625 62.4563C11.4196 62.2137 11.5195 62.0138 11.6622 61.8425C11.8193 61.6712 12.0476 61.4857 12.3474 61.3144L13.4037 60.6863C13.6178 60.5721 13.7891 60.4579 13.8891 60.3722C13.989 60.2866 14.0746 60.2009 14.1175 60.1153C14.1603 60.0296 14.1603 59.9297 14.1317 59.8298C14.0889 59.7013 14.0318 59.6157 13.9462 59.5586C13.8605 59.5015 13.7178 59.4301 13.5179 59.3587L13.5893 59.1446C13.8748 59.2446 14.1175 59.3587 14.2745 59.4872ZM10.8629 63.3128C10.6202 63.0844 10.3347 62.9559 10.0349 62.9274C9.73517 62.8988 9.39258 62.9417 9.00717 63.0701C8.39337 63.2557 7.9794 63.5555 7.75101 63.9409C7.52262 64.3263 7.52262 64.8544 7.72246 65.4968C7.79384 65.7252 7.87948 65.8965 7.96513 65.9964C8.05078 66.0963 8.17925 66.1534 8.32199 66.1534C8.46474 66.1534 8.67886 66.1106 8.9358 66.0392L11.6765 65.1828L11.4481 64.4262C11.3054 63.9123 11.1055 63.5412 10.8629 63.3128Z" fill="#292F36"/>
<path d="M13.1753 45.9407C13.7177 45.698 14.046 45.2412 14.1888 44.5561C14.2316 44.2991 14.2316 44.0422 14.1602 43.7995C14.0889 43.5568 13.9604 43.3427 13.7606 43.1572C13.5607 42.9716 13.2895 42.8431 12.9326 42.786C12.6329 42.7289 12.3617 42.7575 12.1047 42.8574C11.8478 42.9573 11.5908 43.1143 11.3482 43.3285C11.1055 43.5426 10.82 43.8281 10.506 44.1849C10.1491 44.5846 9.83506 44.9129 9.56384 45.1413C9.29263 45.384 8.99286 45.5553 8.66455 45.6838C8.33624 45.8122 7.9651 45.8265 7.55114 45.7551C7.1229 45.6695 6.76604 45.5125 6.50909 45.2555C6.25215 44.9986 6.06658 44.6988 5.98094 44.3419C5.89529 43.9851 5.89529 43.6139 5.96666 43.2143C6.00949 42.9716 6.06658 42.786 6.13796 42.6147C6.20933 42.4434 6.2807 42.315 6.36635 42.215C6.452 42.1151 6.53764 42.0009 6.65184 41.8867C6.79458 41.7297 6.86596 41.6155 6.89451 41.5299C6.90878 41.4585 6.88023 41.4014 6.80886 41.3443C6.73749 41.2872 6.60902 41.2444 6.43772 41.1873L6.48055 40.9303C6.92306 41.0445 7.69388 41.2158 8.82157 41.4299L8.77875 41.6869C8.37906 41.6441 8.00792 41.6583 7.63678 41.744C7.27992 41.8154 6.96588 41.9724 6.70894 42.215C6.452 42.4434 6.2807 42.7717 6.20933 43.1714C6.15223 43.4427 6.16651 43.6853 6.23788 43.928C6.30925 44.1707 6.43772 44.3562 6.60902 44.5132C6.79459 44.6703 7.0087 44.7702 7.26564 44.8273C7.67961 44.8987 8.03647 44.8416 8.33624 44.6417C8.636 44.4419 8.92149 44.1849 9.19271 43.8852C9.46392 43.5854 9.63522 43.3856 9.73514 43.2856C10.1348 42.8574 10.4631 42.5291 10.7344 42.2864C11.0056 42.0437 11.3053 41.8725 11.6337 41.7583C11.962 41.6441 12.3188 41.6298 12.7042 41.7012C13.1753 41.7868 13.5607 41.9724 13.8462 42.2436C14.1317 42.5291 14.3173 42.8574 14.4172 43.2571C14.5171 43.6568 14.5171 44.085 14.4315 44.5418C14.3601 44.9129 14.2744 45.1984 14.146 45.4268C14.0318 45.6552 13.8748 45.855 13.7035 46.0406C13.5607 46.1976 13.4893 46.3118 13.4608 46.3975C13.4465 46.4689 13.4751 46.526 13.5464 46.5831C13.6178 46.6401 13.7463 46.6972 13.9176 46.7401L13.8748 46.997C13.4608 46.8828 12.5472 46.6972 11.134 46.4403L11.1769 46.1834C11.9762 46.2547 12.6329 46.1834 13.1753 45.9407Z" fill="#292F36"/>
<path d="M10.3489 33.9071C9.94918 33.693 9.4924 33.4932 8.97852 33.2933C9.29256 32.7366 9.82071 31.766 10.5344 30.3813C11.2482 29.011 11.7478 28.0403 12.019 27.4551C12.4901 27.7548 12.9183 28.0118 13.3037 28.2116C13.6463 28.3972 13.9461 28.5256 14.1744 28.6256L14.046 28.8682C13.475 28.6398 13.0468 28.4971 12.747 28.4543C12.4472 28.3972 12.176 28.4543 11.9476 28.597C11.7192 28.7398 11.4908 29.0253 11.2767 29.4535L10.9912 30.0245L16.8866 33.0935C17.1721 33.2505 17.4005 33.3219 17.5575 33.3362C17.7145 33.3504 17.8573 33.3076 17.9857 33.1934C18.1142 33.0792 18.257 32.8651 18.4283 32.5653L18.6424 32.6795C18.4283 33.0364 18.157 33.536 17.8145 34.1926C17.4576 34.8778 17.2006 35.406 17.0436 35.7343L16.8295 35.6201C16.9723 35.306 17.0722 35.0634 17.0865 34.9064C17.115 34.7351 17.0722 34.5923 16.958 34.4639C16.8438 34.3354 16.6582 34.2069 16.3727 34.0499L10.4773 30.9666L10.1776 31.5233C9.94918 31.9515 9.84925 32.2941 9.86353 32.5653C9.8778 32.8366 9.99201 33.0792 10.2061 33.2933C10.4202 33.5075 10.7771 33.7929 11.291 34.1213L11.1625 34.3639C10.977 34.2497 10.6915 34.0927 10.3489 33.9071Z" fill="#292F36"/>
<path d="M20.4268 17.5059C20.6694 17.2632 20.8693 17.0348 21.012 16.8635L21.1833 17.0348C21.0977 17.1633 21.0549 17.3488 21.0691 17.563C21.0834 17.7771 21.1405 18.0768 21.2547 18.4337L22.5537 22.3021L24.0668 23.8009C24.2809 24.0008 24.4379 24.1435 24.5664 24.2006C24.6949 24.2577 24.8233 24.2577 24.9518 24.2006C25.0803 24.1435 25.2373 24.015 25.4514 23.8295L25.6227 24.0008C25.3515 24.2434 24.9946 24.586 24.5521 25.0285C24.0811 25.4996 23.7385 25.8707 23.5244 26.1134L23.3531 25.9421C23.5386 25.728 23.6671 25.571 23.7242 25.4425C23.7813 25.314 23.7813 25.1856 23.7099 25.0571C23.6528 24.9286 23.5101 24.7573 23.3102 24.5575L22.0541 23.3156L17.2864 21.9167C17.0009 21.831 16.7868 21.8025 16.644 21.8168C16.5013 21.831 16.4014 21.8739 16.33 21.9452L16.1587 21.7739C16.3871 21.5741 16.644 21.3457 16.901 21.0745C17.4291 20.5321 17.8145 20.1466 18.0287 19.8897L18.2 20.061C17.8145 20.4464 17.7289 20.7462 17.943 20.9603C18.0287 21.0459 18.1429 21.103 18.3141 21.1601L22.3253 22.402L21.269 19.2473C21.112 18.7906 20.9549 18.4765 20.7836 18.3195C20.6266 18.1625 20.4553 18.1197 20.2698 18.1768C20.0842 18.2339 19.8701 18.3766 19.6131 18.6193L19.4418 18.448C19.7844 18.1339 20.0985 17.8199 20.4268 17.5059Z" fill="#292F36"/>
<path d="M29.0628 11.7532C28.9771 11.8531 28.9343 11.9816 28.9628 12.1243C28.9914 12.2671 29.0628 12.4669 29.2055 12.7239L31.9605 17.8342C32.1032 18.0911 32.2174 18.2624 32.3316 18.3623C32.4316 18.4622 32.56 18.4908 32.6885 18.4765C32.817 18.4622 33.0168 18.3766 33.2595 18.2481L34.016 17.8342C34.4443 17.6058 34.744 17.3631 34.9011 17.1204C35.0581 16.8778 35.1152 16.6065 35.0723 16.2782C35.0295 15.9499 34.9011 15.536 34.6727 14.9935L34.9153 14.8651C35.0152 15.0934 35.158 15.3789 35.3436 15.7215C35.5577 16.1069 35.8146 16.5352 36.1287 17.0062C35.6576 17.2346 34.8582 17.6486 33.7591 18.2481C32.4458 18.9618 31.4466 19.5043 30.79 19.8897L30.6758 19.6898C30.9185 19.5471 31.0898 19.4186 31.1754 19.3187C31.261 19.2188 31.3039 19.0903 31.2753 18.9476C31.2468 18.8048 31.1754 18.605 31.0327 18.348L28.2491 13.2378C28.1064 12.9808 27.9922 12.8095 27.878 12.7096C27.7781 12.6097 27.6496 12.5811 27.5211 12.5954C27.3784 12.6097 27.1928 12.6811 26.9359 12.8095L26.8359 12.5954C27.1357 12.4669 27.5782 12.2385 28.1635 11.9102C28.7202 11.6105 29.1484 11.3678 29.4482 11.1822L29.5624 11.3821C29.3197 11.5248 29.1627 11.6533 29.0628 11.7532Z" fill="#292F36"/>
<path d="M46.4491 12.6666C46.5348 13.0949 46.6633 13.5802 46.8203 14.1226C46.2921 14.2083 45.4214 14.3653 44.1938 14.608C42.7235 14.8935 41.6243 15.1219 40.8678 15.2932L40.825 15.0648C41.0962 14.9934 41.296 14.9363 41.4102 14.8506C41.5244 14.7793 41.5958 14.6651 41.6101 14.5366C41.6243 14.3939 41.6101 14.1797 41.553 13.8943L40.4396 8.19874C40.3825 7.91325 40.3254 7.71341 40.2397 7.58494C40.1541 7.45647 40.0684 7.38509 39.9257 7.37082C39.7972 7.34227 39.5831 7.35654 39.3119 7.39937L39.269 7.17097C40.0256 7.0425 41.139 6.84266 42.595 6.55717C43.7227 6.32878 44.5221 6.17176 44.9789 6.05756C45.0217 6.57144 45.0931 7.02823 45.1644 7.42792C45.2215 7.72768 45.2786 7.95607 45.3357 8.12737L45.0788 8.18447C44.9218 7.69913 44.779 7.34227 44.6505 7.11388C44.5221 6.88548 44.3365 6.74274 44.1224 6.67137C43.894 6.59999 43.5942 6.59999 43.1803 6.68564L42.2239 6.87121C41.9527 6.92831 41.7528 6.98541 41.6386 7.05678C41.5244 7.12815 41.453 7.22807 41.4245 7.37082C41.4102 7.51356 41.4245 7.72768 41.4816 8.01317L42.0098 10.7253L42.7663 10.5683C43.1517 10.4969 43.3801 10.3256 43.4658 10.0687C43.5514 9.81176 43.58 9.5691 43.5657 9.32643C43.5514 9.08376 43.5371 8.92674 43.5371 8.85537L43.7941 8.79827C43.8369 9.18368 43.894 9.54055 43.9654 9.88314L44.0796 10.4255C44.1509 10.811 44.2794 11.3534 44.465 12.0386L44.208 12.0957C44.1938 12.0386 44.1367 11.8673 44.0367 11.5532C43.9368 11.2392 43.7941 11.0251 43.58 10.8966C43.3658 10.7681 43.1232 10.7396 42.8091 10.7967L42.0526 10.9394L42.595 13.6944C42.6521 13.9799 42.7092 14.1797 42.7806 14.3082C42.8519 14.4224 42.9519 14.4938 43.0946 14.5223C43.2231 14.5366 43.4372 14.5223 43.7084 14.4652L44.5506 14.2939C45.0217 14.194 45.3785 14.0655 45.6069 13.8943C45.8353 13.723 45.9638 13.4803 46.0209 13.1805C46.078 12.8808 46.078 12.4525 46.0352 11.8958L46.2921 11.8387C46.3349 12.0528 46.3778 12.3241 46.4491 12.6666Z" fill="#292F36"/>
<path d="M36.8283 67.1811C36.1717 66.2961 35.6007 65.3254 35.1011 64.2548C34.6015 63.1842 34.2018 62.0994 33.9021 60.986C33.2454 56.0898 33.2312 51.3364 33.845 46.7257C34.4588 42.115 35.458 37.5757 36.8283 33.0935C37.0567 32.5939 37.5563 32.3512 38.3272 32.3512C39.098 32.3512 39.8545 32.5225 40.6254 32.8651C41.3962 33.2077 42.0243 33.6645 42.5239 34.2355C43.0235 34.8065 43.1377 35.406 42.8665 36.0198C42.4382 36.9334 42.0243 38.1753 41.6103 39.7169C41.1964 41.2728 40.7824 42.9858 40.4113 44.8557C40.0258 46.7257 39.6975 48.6956 39.412 50.7369C39.1265 52.7781 38.9124 54.748 38.784 56.618C38.6555 58.4879 38.6269 60.1866 38.6983 61.6997C38.7697 63.2128 38.9981 64.4119 39.3835 65.2826C41.1821 62.8702 42.8237 60.3722 44.3225 57.7885C45.8213 55.2048 47.2202 52.5925 48.5335 49.9232C49.8467 47.2681 51.1029 44.5845 52.2877 41.8581C53.4725 39.1459 54.643 36.4623 55.7849 33.8215C56.3559 32.4797 56.9269 31.0665 57.4836 29.582C58.0403 28.0832 58.7683 26.8127 59.6962 25.7421C60.0816 25.3995 60.3813 25.2854 60.5812 25.3995C60.7953 25.5137 60.938 25.7279 61.0094 26.0562C61.0808 26.3845 61.1236 26.7271 61.1236 27.0839C61.1236 27.4408 61.1236 27.7263 61.1236 27.9119C60.8524 29.6676 60.624 31.4091 60.4384 33.1363C60.2529 34.8636 59.8389 36.5194 59.2394 38.1324C58.2402 40.659 57.2267 43.1571 56.1703 45.6551C55.114 48.1389 53.9863 50.5941 52.7873 53.0065C51.5882 55.4189 50.275 57.7599 48.8903 60.0296C47.4914 62.3135 45.9783 64.4832 44.3225 66.5388C43.0235 68.1803 41.7245 69.0511 40.4541 69.151C39.1265 69.2652 37.9418 68.5943 36.8283 67.1811Z" fill="#292F36" stroke="white" stroke-miterlimit="10"/>
<path d="M60.467 60.7005C59.6962 59.6299 58.9397 58.545 58.1974 57.4316C57.4551 56.3182 57.084 55.1049 57.084 53.7631C57.084 52.2785 57.5122 50.8653 58.3687 49.5378C59.2252 48.2246 60.2101 47.154 61.3235 46.3546C61.7803 46.0548 62.2514 45.7979 62.7224 45.6123C63.1935 45.4267 63.7074 45.441 64.2498 45.6694C64.4782 45.7836 64.7209 45.8693 64.9635 45.9264C65.2062 45.9835 65.4346 46.0548 65.6202 46.1262C65.8057 46.1976 66.0198 46.3118 66.2482 46.4688C66.4766 46.6258 66.5908 46.8257 66.5908 47.0969C66.5908 48.1675 66.6194 49.0382 66.6765 49.7091C66.7336 50.38 66.8192 50.951 66.9334 51.4363C67.0476 51.9217 67.1618 52.3356 67.276 52.6925C67.3902 53.0636 67.5044 53.449 67.6186 53.863C67.69 54.2484 67.6757 54.5767 67.5615 54.8337C67.4473 55.1049 67.1618 55.1334 66.705 54.9479C65.8628 54.6481 65.2347 54.0343 64.835 53.1064C64.4354 52.1786 64.1356 51.3507 63.95 50.5799C63.9072 50.4228 63.8216 50.1659 63.6645 49.7805C63.5075 49.3951 63.4219 49.1239 63.3791 48.9811C63.0793 48.9097 62.7081 49.0097 62.2942 49.2951C61.8802 49.5806 61.4948 49.9803 61.1808 50.4657C60.8525 50.9653 60.6383 51.5362 60.5527 52.1929C60.4528 52.8495 60.5812 53.4919 60.9238 54.1485C61.0808 54.3769 61.295 54.6624 61.5805 54.9764C61.8659 55.3047 62.1514 55.633 62.4369 55.9756C62.7224 56.3182 63.0079 56.6608 63.2934 56.9748C63.5789 57.2889 63.8216 57.5601 64.0071 57.7457C64.2355 57.9741 64.3925 58.1025 64.4639 58.1168C64.5353 58.1311 64.7351 58.0883 65.0349 57.9741C65.4203 57.7885 66.0056 57.5316 66.7907 57.2318C67.5758 56.932 68.4037 56.618 69.2602 56.3182C70.1166 56.0185 70.9446 55.7615 71.7297 55.5474C72.5148 55.3333 73.1143 55.2333 73.5425 55.2333C73.8137 55.2333 73.9993 55.3333 74.1135 55.5188C74.2277 55.633 74.2134 55.7901 74.0564 55.9756C73.8994 56.1612 73.6995 56.361 73.4569 56.5466C73.2142 56.7322 72.943 56.9035 72.686 57.0605C72.4148 57.2175 72.2435 57.3032 72.1722 57.346C71.5155 57.7314 70.7019 58.1596 69.7027 58.645C68.7035 59.116 67.847 59.5871 67.119 60.0439C67.0476 60.1152 66.9049 60.2009 66.6907 60.2723C66.4766 60.3436 66.3196 60.4293 66.2054 60.5007C66.6622 61.5284 66.9905 62.4277 67.1761 63.17C67.3616 63.9123 67.433 64.626 67.3759 65.3254C67.3188 66.0106 67.1761 66.7101 66.9477 67.4238C66.7193 68.1375 66.4052 68.9512 66.0341 69.8647C65.4917 70.7498 64.9492 71.592 64.3925 72.3913C63.8358 73.1907 63.222 73.9187 62.5226 74.5753C61.8374 75.232 61.0808 75.7459 60.2815 76.117C59.4821 76.5024 58.5971 76.688 57.6407 76.688C57.0983 76.688 56.5844 76.6166 56.0848 76.4881C55.5852 76.3597 55.1712 76.0742 54.8286 75.6602C53.9436 74.7038 53.4582 73.6618 53.344 72.5341C53.2299 71.4064 53.3298 70.293 53.6295 69.1796C53.8579 68.4944 54.1434 67.8663 54.486 67.2811C55.3282 65.8251 56.2561 64.5974 57.2695 63.584C58.2973 62.5847 59.3536 61.6141 60.467 60.7005ZM62.4227 63.2842C61.9944 63.7124 61.4234 64.312 60.6954 65.0971C59.9674 65.8822 59.2965 66.7386 58.6542 67.6522C58.0261 68.5658 57.5122 69.4793 57.1125 70.3786C56.7128 71.2779 56.6129 72.0488 56.7985 72.7054C57.5693 72.3628 58.3544 71.7918 59.1538 71.0067C59.9532 70.2216 60.6669 69.3651 61.2807 68.423C61.8945 67.4809 62.3227 66.5531 62.5654 65.6395C62.8081 64.7116 62.7652 63.9265 62.4227 63.2842Z" fill="#292F36" stroke="white" stroke-miterlimit="10"/>
<path d="M51.1599 83.9395C33.3025 83.9395 18.771 69.408 18.771 51.5506C18.771 33.6931 33.3025 19.1617 51.1599 19.1617C69.0174 19.1617 83.5488 33.6931 83.5488 51.5506C83.5488 69.408 69.0174 83.9395 51.1599 83.9395ZM51.1599 20.5891C34.0876 20.5891 20.1984 34.4782 20.1984 51.5506C20.1984 68.6229 34.0876 82.512 51.1599 82.512C68.2323 82.512 82.1214 68.6229 82.1214 51.5506C82.1214 34.4782 68.2323 20.5891 51.1599 20.5891Z" fill="#292F36"/>
</g>
<defs>
<clipPath id="clip0_2_157">
<rect width="103" height="103" fill="white" transform="translate(0 0.390625)"/>
</clipPath>
</defs>
</svg>
