<svg width="145" height="46" viewBox="0 0 145 46" fill="none" xmlns="http://www.w3.org/2000/svg">
<g clip-path="url(#clip0_2_190)">
<path d="M20.2413 9.21956L21.3118 8.99117C21.5831 8.99117 21.8115 9.04827 21.9685 9.16247C22.1255 9.27666 22.2112 9.39086 22.2112 9.49078C22.2112 9.5907 22.1826 9.74772 22.1398 9.93329C22.097 10.1189 21.6973 12.0316 20.955 15.6431C20.2127 19.2545 19.6703 21.9524 19.3277 23.7225C20.9835 21.4671 22.9249 18.6978 25.1374 15.4004C27.35 12.103 28.649 9.91901 29.0201 8.83415C29.1343 8.49156 29.2913 8.23462 29.4769 8.04905C29.6625 7.86348 29.8338 7.74929 29.9765 7.72074C30.1192 7.69219 30.3476 7.66364 30.6474 7.66364C30.9472 7.66364 31.304 7.73501 31.718 7.86349C32.132 7.99196 32.3461 8.20607 32.3461 8.52011C32.3461 9.09109 31.4896 10.7612 29.7909 13.5019C28.0923 16.2426 26.1367 19.1546 23.9384 22.2379C21.7401 25.3212 19.913 27.7622 18.4427 29.5607C18.1857 29.8748 17.8574 30.0461 17.4863 30.0461C17.1151 30.0461 16.7155 29.9747 16.3015 29.8462C15.8875 29.7178 15.6734 29.4894 15.6734 29.1468C15.6734 28.0762 16.6155 22.9088 18.4998 13.6732C16.8867 15.7573 14.9311 18.6693 12.6329 22.3949C10.2348 26.2491 8.87874 28.6472 8.5647 29.5607C8.39341 30.1175 8.19357 30.4458 7.96517 30.5314C7.80815 30.6028 7.63685 30.6313 7.46556 30.6313L6.30932 30.7598C6.08093 30.7598 5.88108 30.7027 5.68124 30.5742C5.49567 30.4458 5.39575 30.3173 5.39575 30.1746C5.39575 29.7891 5.93819 28.6186 7.00878 26.6773C8.07937 24.736 9.3498 22.6233 10.7915 20.3394C12.2333 18.0555 13.7321 15.8429 15.3023 13.6875C16.8725 11.532 18.0858 10.076 18.9423 9.34804C19.1136 9.19102 19.3134 9.11964 19.5418 9.11964L20.2413 9.21956Z" fill="#292F36"/>
<path d="M37.3993 18.8978C38.1416 18.8978 38.5127 19.1548 38.5127 19.6544C38.5127 19.9256 38.4556 20.1254 38.3272 20.2539C38.1987 20.3824 37.9275 20.7963 37.5135 21.5243C37.0996 22.2381 36.6428 23.1516 36.1432 24.2793C35.6435 25.3927 35.3152 26.3491 35.1725 27.1342C35.144 27.2341 35.1297 27.3626 35.1297 27.5482C35.1297 28.0906 35.2724 28.3476 35.5722 28.3476C35.872 28.3476 36.2145 28.2048 36.6142 27.9336C37.0139 27.6481 37.3708 27.3626 37.6848 27.0343C37.9988 26.7203 38.2986 26.3919 38.5984 26.0636C38.8981 25.7353 39.0695 25.5355 39.1266 25.4927C39.1837 25.4498 39.2693 25.4213 39.3835 25.4213C39.5691 25.4213 39.6833 25.564 39.7261 25.8495C39.7689 26.135 39.7832 26.4205 39.7832 26.7345C39.7832 27.0486 39.7546 27.2484 39.6975 27.3626C39.412 27.9193 38.7982 28.5902 37.8276 29.3753C36.8712 30.1604 35.9862 30.5458 35.2011 30.5458C34.416 30.5458 33.8307 30.3032 33.4738 29.8321C33.117 29.361 32.9171 28.8186 32.9171 28.2476C32.9171 27.6624 33.0171 27.1628 33.2169 26.7203C32.4032 27.7766 31.4754 28.6616 30.4333 29.4039C29.377 30.1319 28.5348 30.503 27.8639 30.503C27.193 30.503 26.6649 30.3032 26.2366 29.9035C25.6942 29.4039 25.4373 28.7187 25.4373 27.8337C25.4373 26.9487 25.6371 26.0636 26.0368 25.1643C26.4365 24.2793 26.9504 23.4514 27.5927 22.7234C28.2351 21.9811 28.9488 21.3102 29.7196 20.7107C31.3326 19.4402 32.8315 18.8122 34.2018 18.8122C34.73 18.8122 35.1582 18.8978 35.4865 19.0691C35.8149 19.2404 36.029 19.4688 36.1146 19.7257C36.343 19.3689 36.5429 19.1548 36.7142 19.0548C36.8426 18.9406 37.0853 18.8978 37.3993 18.8978ZM35.458 20.5251C33.7879 20.5251 32.0606 21.453 30.2763 23.3086C29.6482 23.9795 29.063 24.7647 28.5206 25.6925C27.9781 26.6203 27.7212 27.2484 27.7212 27.591C27.7212 27.9336 27.8211 28.1049 28.021 28.1049C28.2922 28.1049 29.0487 27.5625 30.3049 26.4919C31.561 25.4213 32.389 24.6219 32.7887 24.108C33.2454 23.537 34.1305 22.338 35.458 20.5251Z" fill="#292F36"/>
<path d="M48.505 11.1609L49.1045 11.3036C49.1901 11.3036 49.2758 11.3464 49.3329 11.4321C49.4043 11.5177 49.4328 11.6034 49.4328 11.6747C49.4328 11.7461 49.3329 11.9602 49.1188 12.3028C48.9047 12.6454 48.6763 13.0308 48.3908 13.4591C48.1053 13.8873 47.9625 14.13 47.9483 14.1728C48.7048 14.1157 49.2472 14.0871 49.5613 14.0871C49.8753 14.0871 50.0894 14.1157 50.2179 14.1585C50.3321 14.2013 50.4748 14.3298 50.6176 14.5297C50.7746 14.7295 50.9031 14.8865 51.0316 14.9864C51.16 15.0864 51.2171 15.2434 51.2171 15.4432C51.2171 15.6431 51.0887 15.8286 50.846 15.9571C50.6033 16.0999 50.3321 16.1855 50.0466 16.2141C47.777 16.4424 46.5351 16.5566 46.3067 16.5709C45.5216 17.7843 44.4082 19.6685 42.995 22.2236C41.5818 24.7788 40.8253 26.3918 40.7396 27.0341C40.6968 27.3339 40.6825 27.5623 40.6825 27.7479C40.6825 28.1333 40.8824 28.3189 41.2821 28.3189C41.6817 28.3189 42.1242 28.1618 42.6096 27.8621C43.0949 27.548 43.5517 27.2197 43.9514 26.8629C45.0505 25.8922 45.6358 25.3926 45.7072 25.3926C45.9641 25.3926 46.0926 25.8351 46.0926 26.7058C46.0926 27.1769 45.8785 27.6051 45.4359 27.9905C44.451 28.8327 43.6231 29.4751 42.9522 29.9033C42.2813 30.3316 41.6104 30.5457 40.9252 30.5457C40.7824 30.5457 40.6397 30.5314 40.5112 30.5029C39.7261 30.3601 39.1551 30.0746 38.7983 29.6464C38.4271 29.2182 38.2559 28.6472 38.2559 27.9334C38.2559 27.2197 38.47 26.3347 38.8982 25.3069C39.3264 24.2792 39.8546 23.18 40.497 22.0238C41.5533 20.1253 42.6096 18.3552 43.6516 16.6994L43.0949 16.7708C41.9672 16.8992 41.3106 16.9563 41.125 16.9563H40.9966C40.7111 16.9563 40.4399 16.8992 40.1829 16.785C39.926 16.6708 39.7832 16.5281 39.7832 16.3711C39.7832 16.1998 39.8546 16.0428 39.9974 15.8857C40.1401 15.7287 40.2257 15.6002 40.2543 15.5146C40.3257 15.3005 40.5826 15.0578 41.0251 14.8009C41.4676 14.5439 41.7959 14.4012 42.0243 14.3869C42.2527 14.3726 42.4668 14.3584 42.681 14.3441C42.8951 14.3298 43.1235 14.3298 43.3804 14.3155C43.6374 14.3013 43.8372 14.3013 43.9799 14.287L45.2932 14.2299C46.1068 13.0023 46.6778 12.2029 46.9776 11.8603C47.2916 11.5035 47.4629 11.3179 47.5058 11.2893C47.5486 11.2608 47.6485 11.2322 47.8055 11.2322L48.505 11.1609Z" fill="#292F36"/>
<path d="M57.2836 25.4212C57.4692 25.4212 57.5834 25.564 57.6262 25.8495C57.669 26.135 57.6833 26.4204 57.6833 26.7345C57.6833 27.0485 57.6547 27.2484 57.5976 27.3626C57.3121 27.905 56.6984 28.5759 55.742 29.361C54.7856 30.1461 53.872 30.5458 53.0155 30.5458C52.4874 30.5458 52.002 30.3888 51.5452 30.0747C51.1027 29.7607 50.8743 29.204 50.8743 28.4189C50.8743 27.6338 51.0885 26.8487 51.5024 26.0921C49.0758 29.1326 47.1915 30.6457 45.8069 30.6457C45.2644 30.6457 44.8219 30.4459 44.4794 30.0605C44.1368 29.675 43.9797 29.2754 43.9797 28.8471C43.9797 28.4332 44.0368 28.0049 44.151 27.5624C44.2652 27.1199 44.3937 26.7202 44.5222 26.3634C44.6506 26.0065 44.8505 25.5783 45.1074 25.0644C45.3644 24.5505 45.5642 24.1793 45.6784 23.9367C45.7926 23.694 46.0067 23.3514 46.2922 22.8804C46.5777 22.4093 46.9346 21.7669 47.3913 20.9676C47.8481 20.1682 48.2193 19.5687 48.519 19.1833C48.8188 18.7978 49.1043 18.598 49.3898 18.598C49.6753 18.598 49.9179 18.7122 50.1321 18.9406C50.3462 19.169 50.4604 19.3688 50.4604 19.5116C50.4604 19.6543 50.1321 20.3109 49.4754 21.4815C47.5484 24.9787 46.5777 27.0057 46.5777 27.591C46.5777 27.7337 46.6348 27.8051 46.7347 27.8051C47.2058 27.8051 48.3763 26.7916 50.232 24.7646C52.0877 22.7376 53.1725 21.4386 53.4723 20.8677C53.7721 20.2967 54.0433 19.8113 54.3288 19.4259C54.6 19.0405 54.8141 18.7978 54.9569 18.7122C55.3708 18.441 55.9132 18.2982 56.5842 18.2697C56.6983 18.2697 56.7697 18.2697 56.8268 18.284C56.8839 18.2982 56.9553 18.3839 57.0267 18.5266C57.098 18.6694 57.1409 18.7978 57.1409 18.8978C57.0552 19.169 56.6698 19.897 55.9703 21.0818C55.2852 22.2666 54.8998 22.9375 54.8284 23.0802C53.6722 25.4641 53.1012 27.02 53.1012 27.7337C53.1012 28.1477 53.2582 28.3475 53.5722 28.3475C54.1432 28.2761 54.8284 27.8194 55.6278 26.9914C55.9275 26.6917 56.213 26.3776 56.4985 26.0636C56.784 25.7495 56.9696 25.564 57.0267 25.5212C57.098 25.4498 57.1837 25.4212 57.2836 25.4212Z" fill="#292F36"/>
<path d="M61.5232 22.0382C63.8214 19.4259 65.7913 18.1127 67.4044 18.1127C67.804 18.1127 68.1324 18.2269 68.3893 18.4695C68.6462 18.7122 68.7747 19.012 68.7747 19.3974C68.7747 19.7828 68.5035 20.4109 67.9611 21.3102C67.4186 22.1952 66.919 22.9517 66.4622 23.5656C66.2196 23.8796 65.9483 24.0366 65.6343 24.0366C65.3345 24.0366 65.0919 23.9224 64.9206 23.694C64.7493 23.4656 64.6637 23.2087 64.6637 22.9089C64.6637 22.238 65.0205 21.4672 65.7485 20.625L65.72 20.5965C65.3916 20.625 64.6065 21.2674 63.3218 22.495C62.0514 23.7368 60.9665 24.8503 60.0672 25.8209C59.1822 26.8059 58.2115 27.9907 57.1552 29.4038C56.8555 29.8178 56.5985 30.0319 56.3844 30.0319C56.1703 30.0319 55.8991 29.9605 55.5565 29.8321C55.2139 29.7036 54.9998 29.6037 54.9284 29.5466C54.857 29.4895 54.8142 29.3896 54.8142 29.2468C54.8142 29.1183 54.857 28.9471 54.9284 28.7758C54.9998 28.5902 55.1568 28.3332 55.3566 28.0049C55.5565 27.6766 55.8848 27.1342 56.313 26.3919C56.7413 25.6496 57.3979 24.522 58.2972 23.0231C59.1965 21.5243 59.7247 20.6107 59.9102 20.2967C60.2814 19.6543 60.5811 19.1833 60.8238 18.8978C61.2663 18.3411 62.0086 18.0699 63.0506 18.0699C63.279 18.0699 63.4075 18.2126 63.4075 18.5124C63.4075 18.9692 62.9792 19.8399 62.1371 21.0961L61.5232 22.0382Z" fill="#292F36"/>
<path d="M77.2681 19.069C77.2681 19.7114 77.0112 20.2824 76.483 20.7677C75.9549 21.253 75.3696 21.4957 74.6987 21.4957C74.4846 21.4957 74.3419 21.4386 74.2705 21.3387C74.1991 21.2388 74.1705 21.096 74.1705 20.939C74.1705 20.782 74.1848 20.6107 74.2277 20.4536C73.8708 20.5678 73.4854 20.7534 73.0571 20.9961C72.6289 21.2387 72.1007 21.5956 71.4727 22.0809C70.8446 22.5663 70.5306 22.9089 70.5306 23.1515C70.5306 23.2229 70.6447 23.2657 70.8731 23.2657C71.1015 23.2657 71.4584 23.1801 71.9295 23.0231C72.4005 22.866 72.7431 22.7804 72.9287 22.7804C73.1142 22.7804 73.2427 22.7947 73.2998 22.8089C73.4283 22.8803 73.5568 23.0231 73.7138 23.2515C73.8565 23.4799 73.9279 23.6654 73.9279 23.7939C73.9279 23.9224 73.7994 24.0937 73.5425 24.3078C73.2855 24.5219 73 24.6789 72.686 24.7931C72.3577 24.9073 72.1436 24.993 72.0437 25.05C69.9881 26.2063 68.9603 26.9914 68.9603 27.4196C68.9603 28.1762 69.6027 28.5616 70.9017 28.5616C71.7296 28.5616 72.5718 28.3046 73.3997 27.7765C74.1135 27.334 74.7558 26.8772 75.3268 26.4061C75.8978 25.9493 76.2546 25.6639 76.4117 25.5497C76.5687 25.4355 76.6829 25.3926 76.7543 25.3926C77.0112 25.3926 77.1397 25.6781 77.1397 26.2491C77.1397 26.8201 77.1111 27.1912 77.0397 27.3625C76.9684 27.5481 76.7828 27.7622 76.4545 28.0334C74.3704 29.7321 72.3862 30.5886 70.5306 30.5886C69.5313 30.5886 68.7462 30.4458 68.1467 30.1746C67.0476 29.675 66.5051 28.9185 66.5051 27.8907C66.5051 26.5489 67.433 25.5211 69.3029 24.8359C68.9318 24.6646 68.6891 24.4648 68.5892 24.1936C68.475 23.9366 68.4322 23.5227 68.4322 22.9517C68.4322 22.3807 68.7034 21.7812 69.2316 21.1388C69.7597 20.4965 70.4163 19.9683 71.1872 19.5686C72.9001 18.6408 74.4418 18.184 75.7836 18.184C76.1119 18.184 76.4259 18.2554 76.7685 18.4124C77.1111 18.5694 77.2681 18.7835 77.2681 19.069Z" fill="#292F36"/>
<path d="M110.585 9.134H110.77C110.828 9.134 110.87 9.134 110.885 9.14827C110.899 9.16254 110.913 9.16255 110.942 9.17682C110.97 9.17682 110.985 9.19109 111.013 9.21964C111.056 9.26247 111.127 9.30529 111.213 9.34811C111.327 9.43376 111.384 9.53368 111.384 9.64788C111.384 9.76208 111.27 10.0047 111.042 10.3759C110.813 10.747 110.228 11.6463 109.272 13.1023C107.088 16.4425 105.132 19.5544 103.405 22.4093C100.421 27.3768 98.9083 29.8749 98.8798 29.9034C98.8512 29.932 98.8369 29.9605 98.8226 29.9891C98.8084 30.0462 98.7798 30.0747 98.7084 30.0747L98.5086 30.0319L98.1089 30.1318L97.8805 30.089L97.6379 30.1318H97.5522L96.7386 30.246C96.2532 30.246 96.0106 30.0747 96.0106 29.7464C96.0106 29.6037 96.0534 29.4324 96.139 29.2325C96.4388 28.5188 97.9662 25.9351 100.707 21.4529C98.9083 21.4957 97.124 21.5243 95.3682 21.5243L92.2278 21.51C91.7139 22.3379 91.0002 23.5084 90.1009 25.0358C88.1596 28.3618 87.1318 30.0319 87.0033 30.0604C86.8749 30.089 86.7749 30.1175 86.6893 30.1175C86.6036 30.1175 86.5323 30.0747 86.4752 29.9748C86.4038 29.8892 86.361 29.832 86.3324 29.832C86.3039 29.832 86.261 29.8463 86.1754 29.8891C86.104 29.932 85.9898 29.9462 85.8328 29.9462L85.4902 29.932L85.3618 29.8463C85.3475 29.8463 85.3332 29.8606 85.3189 29.8891C85.3047 29.9177 85.2618 29.932 85.2047 29.932C84.7908 29.932 84.5767 29.7607 84.5767 29.4038C84.5767 29.1754 84.6623 28.8614 84.8193 28.476C84.9906 28.0906 85.2047 27.6766 85.476 27.2341C85.7472 26.7916 86.4323 25.721 87.56 24.0509C88.6734 22.3807 89.2302 21.5385 89.2302 21.5243C89.0446 21.51 88.8305 21.51 88.5878 21.4957C88.0882 21.4957 87.7456 21.4814 87.5315 21.4386C86.9748 21.3387 86.5894 20.8819 86.3895 20.0683C86.2753 19.6686 86.2325 19.4116 86.2468 19.2832C86.2468 19.0262 86.361 18.8835 86.5894 18.8835L86.9748 18.9834C87.1746 18.9977 87.6314 19.012 88.3737 19.0548C89.116 19.0976 89.6441 19.1119 89.9724 19.1119L90.8004 19.0833C92.0708 17.0992 93.5839 14.8438 95.3539 12.3315C94.0692 13.3878 92.6418 13.9159 91.0716 13.9159C90.3293 13.9159 89.6869 13.7446 89.1588 13.3878C88.6163 13.0309 88.3594 12.5741 88.3594 12.0317C88.3594 11.4893 88.5593 11.061 88.9732 10.7327C89.3872 10.4187 89.7726 10.2617 90.1437 10.2617C90.5149 10.2617 90.7004 10.3188 90.7004 10.433C90.7004 10.4758 90.6433 10.5186 90.5434 10.5614C90.4435 10.6185 90.3864 10.6614 90.3864 10.7042C90.3864 10.8612 90.5577 11.0039 90.9003 11.1181C91.2429 11.2323 91.6283 11.3037 92.0565 11.3037C92.4847 11.3037 92.9986 11.1752 93.6267 10.9326C94.2548 10.6899 94.8971 10.3616 95.568 9.97619C96.5102 9.43376 97.2524 8.97697 97.7949 8.62011C98.1089 8.46309 98.3944 8.39172 98.6799 8.39172C98.9654 8.39172 99.151 8.42027 99.2794 8.49164C99.4079 8.54874 99.4935 8.62011 99.5506 8.67721C99.6077 8.73431 99.6791 8.81996 99.7362 8.91988C99.8076 9.0198 99.8647 9.10545 99.9361 9.14827C99.9932 9.20537 100.036 9.26247 100.036 9.33384C100.036 9.40521 99.9932 9.50513 99.9218 9.66215C99.8504 9.8049 99.4793 10.4044 98.8084 11.4465C98.1375 12.4885 97.2667 13.816 96.2104 15.429C95.1541 17.0421 94.3833 18.2269 93.8979 18.9977C96.5102 18.9977 99.3223 18.9549 102.348 18.8549C106.031 13.0452 107.973 10.0047 108.172 9.71925C108.372 9.43376 108.558 9.24819 108.729 9.16254C108.9 9.0769 109.1 9.03407 109.343 9.03407L110.585 9.134Z" fill="#292F36"/>
<path d="M115.353 18.8692C115.652 18.8692 115.952 18.9977 116.252 19.2689C116.566 19.5401 116.709 19.9398 116.709 20.4822C116.709 21.0246 116.523 21.7241 116.138 22.5948C115.752 23.4513 115.238 24.3363 114.567 25.2356C113.911 26.1207 113.169 26.9629 112.383 27.748C111.584 28.5331 110.728 29.1754 109.814 29.675C108.886 30.1746 108.058 30.4316 107.302 30.4316C106.545 30.4316 105.946 30.1889 105.489 29.7178C105.032 29.2468 104.804 28.5901 104.804 27.748C104.804 26.9058 105.018 25.9636 105.432 24.9501C105.846 23.9224 106.374 23.0231 107.031 22.238C107.687 21.4529 108.387 20.7534 109.157 20.1253C110.742 18.8406 112.141 18.2126 113.34 18.2126C113.882 18.2126 114.282 18.341 114.553 18.6123C114.653 18.6979 114.696 18.7835 114.696 18.8406V18.9263C114.853 18.8692 115.067 18.8692 115.353 18.8692ZM113.882 20.8105H113.782C113.44 20.8105 113.268 20.5679 113.268 20.0683C112.555 20.2966 111.813 20.7106 111.027 21.2959C110.242 21.8811 109.543 22.5806 108.929 23.3799C107.673 24.9787 107.045 26.3348 107.031 27.4339C107.031 27.9763 107.23 28.2476 107.63 28.2476C108.03 28.2476 108.629 27.9763 109.414 27.4625C110.199 26.9486 110.985 26.192 111.77 25.2071C112.541 24.2364 113.126 23.3799 113.511 22.6662C113.897 21.9525 114.096 21.4672 114.096 21.1959C114.082 20.939 114.011 20.8105 113.882 20.8105Z" fill="#292F36"/>
<path d="M116.395 30.1032L115.681 30.0747H115.424C115.324 30.0461 115.224 29.989 115.11 29.9034C114.996 29.8177 114.91 29.7464 114.853 29.7178C114.796 29.6893 114.767 29.6036 114.767 29.5037C114.767 29.4038 114.81 29.2182 114.882 28.9755C116.78 24.7931 118.621 21.4386 120.406 18.9405C120.606 18.6693 120.92 18.4552 121.348 18.3124C121.776 18.1697 122.204 18.0983 122.618 18.0983C122.861 18.0983 122.989 18.2839 122.989 18.6693C122.989 18.7835 122.947 18.9263 122.875 19.0976C122.804 19.2831 122.604 19.5686 122.29 19.9826C121.976 20.3965 121.605 20.8676 121.177 21.3815C120.748 21.8954 120.506 22.2094 120.449 22.295C121.79 20.9104 122.989 19.8827 124.074 19.1975C125.159 18.5266 125.93 18.184 126.415 18.184C126.901 18.184 127.272 18.3267 127.529 18.5979C127.786 18.8692 127.914 19.1689 127.914 19.483C127.914 19.797 127.886 20.0682 127.843 20.2681C127.8 20.4822 127.714 20.6963 127.6 20.9247C127.486 21.1531 127.386 21.3529 127.3 21.5099C127.215 21.667 127.072 21.8811 126.886 22.138C126.687 22.395 126.558 22.5805 126.487 22.6805C126.415 22.7804 126.258 22.9659 126.03 23.2372C125.802 23.5084 125.673 23.6654 125.659 23.6939C125.93 23.4227 126.315 23.023 126.801 22.4806C127.286 21.9382 127.7 21.4957 128.043 21.1388C128.385 20.7819 128.799 20.368 129.313 19.9112C129.827 19.4544 130.298 19.0833 130.726 18.8121C131.783 18.1554 132.853 17.8128 133.938 17.8128C134.309 17.8128 134.623 17.927 134.88 18.1697C135.137 18.4124 135.266 18.6836 135.266 19.0119C135.266 19.3402 134.866 20.1253 134.081 21.3529C133.296 22.5805 132.496 23.8224 131.711 25.0643C130.926 26.3062 130.526 27.0913 130.526 27.4196C130.526 27.8621 130.612 28.1333 130.769 28.219C130.94 28.3046 131.14 28.3332 131.369 28.3189C131.597 28.3046 131.94 28.1476 132.354 27.8621C132.782 27.5766 133.153 27.2911 133.481 26.9771C134.024 26.4918 134.509 26.0207 134.98 25.5639C135.08 25.4783 135.18 25.4354 135.308 25.4354C135.494 25.4354 135.608 25.5782 135.651 25.8637C135.694 26.1492 135.708 26.4347 135.708 26.7487C135.708 27.0627 135.68 27.2626 135.622 27.3768C135.337 27.9192 134.709 28.5901 133.752 29.3895C132.782 30.1746 131.854 30.5743 130.969 30.5743C130.855 30.5743 130.783 30.5743 130.741 30.56C129.741 30.4601 129.042 30.1889 128.656 29.7321C128.271 29.2753 128.085 28.7329 128.085 28.1191C128.085 27.5053 128.3 26.7344 128.728 25.8494C129.156 24.9644 129.613 24.1507 130.127 23.437C130.641 22.7233 131.097 22.0667 131.526 21.4814C131.954 20.8961 132.168 20.5821 132.168 20.5393C132.168 20.4965 132.125 20.4679 132.054 20.4679C131.754 20.4679 131.083 20.9532 130.027 21.9382C128.242 23.6083 126.701 25.2213 125.402 26.763C125.059 27.1769 124.246 28.2047 122.975 29.8748C122.832 30.0747 122.59 30.1746 122.276 30.1746C121.962 30.1746 121.633 30.1175 121.291 29.989C120.948 29.8605 120.777 29.7035 120.777 29.518C120.777 29.418 121.548 28.0477 123.104 25.4069C124.66 22.7661 125.43 21.3244 125.43 21.096C125.43 20.8533 125.288 20.7391 125.002 20.7391C124.717 20.7391 124.117 21.1674 123.218 22.0238C120.748 24.3791 118.836 26.7344 117.48 29.0612C117.394 29.2039 117.223 29.418 116.966 29.7035C116.709 29.989 116.48 30.1032 116.395 30.1032Z" fill="#292F36"/>
<path d="M144.701 19.069C144.701 19.7114 144.444 20.2824 143.916 20.7677C143.388 21.253 142.802 21.4957 142.132 21.4957C141.917 21.4957 141.775 21.4386 141.703 21.3387C141.632 21.2388 141.603 21.096 141.603 20.939C141.603 20.782 141.618 20.6107 141.66 20.4536C141.304 20.5678 140.918 20.7534 140.49 20.9961C140.062 21.2387 139.534 21.5956 138.906 22.0809C138.277 22.5663 137.963 22.9089 137.963 23.1515C137.963 23.2229 138.078 23.2657 138.306 23.2657C138.534 23.2657 138.891 23.1801 139.362 23.0231C139.833 22.866 140.176 22.7804 140.362 22.7804C140.547 22.7804 140.676 22.7947 140.733 22.8089C140.861 22.8803 140.99 23.0231 141.147 23.2515C141.289 23.4799 141.361 23.6654 141.361 23.7939C141.361 23.9224 141.232 24.0937 140.975 24.3078C140.718 24.5219 140.433 24.6789 140.119 24.7931C139.791 24.9073 139.576 24.993 139.476 25.05C137.421 26.2063 136.393 26.9914 136.393 27.4196C136.393 28.1762 137.036 28.5616 138.335 28.5616C139.162 28.5616 140.005 28.3046 140.833 27.7765C141.546 27.334 142.189 26.8772 142.76 26.4061C143.331 25.9493 143.687 25.6639 143.845 25.5497C144.002 25.4355 144.116 25.3926 144.187 25.3926C144.444 25.3926 144.573 25.6781 144.573 26.2491C144.573 26.8201 144.544 27.1912 144.473 27.3625C144.401 27.5481 144.216 27.7622 143.887 28.0334C141.803 29.7321 139.819 30.5886 137.963 30.5886C136.964 30.5886 136.179 30.4458 135.58 30.1746C134.48 29.675 133.938 28.9185 133.938 27.8907C133.938 26.5489 134.866 25.5211 136.736 24.8359C136.365 24.6646 136.122 24.4648 136.022 24.1936C135.908 23.9366 135.865 23.5227 135.865 22.9517C135.865 22.3807 136.136 21.7812 136.664 21.1388C137.193 20.4965 137.849 19.9683 138.62 19.5686C140.333 18.6408 141.875 18.184 143.216 18.184C143.545 18.184 143.859 18.2554 144.201 18.4124C144.544 18.5694 144.701 18.7835 144.701 19.069Z" fill="#292F36"/>
<path d="M0 34.0572C3.7542 35.6274 7.57977 36.8408 11.4767 37.7686C15.3451 38.7393 19.2849 39.4245 23.2247 39.8527C25.1946 40.1239 27.1787 40.1525 29.1343 40.338C31.1185 40.3523 33.0884 40.5093 35.0583 40.3951L38.0131 40.3238C38.998 40.3095 39.983 40.181 40.9679 40.1239C41.9529 40.0383 42.9378 39.9954 43.9085 39.867L46.8347 39.453C50.7602 39.0248 54.5715 38.1112 58.3686 37.0121C62.2084 35.9557 65.8342 34.5568 69.674 33.1008C73.5995 31.6591 77.8533 30.717 82.1642 31.1738C84.2911 31.445 86.4323 32.1302 88.1738 33.3863C89.9296 34.6282 91.1857 36.3983 91.9851 38.2539C90.786 36.5981 89.2872 35.242 87.56 34.3998C85.8328 33.5576 83.9343 33.215 82.05 33.2721C78.2387 33.3292 74.4845 34.5997 70.9587 36.1984C67.3758 37.9685 63.4931 39.5672 59.5819 40.8947C55.6421 42.1652 51.5739 43.1787 47.4485 43.6925C39.2407 44.7774 30.833 44.7917 22.7251 43.1501C18.6568 42.4078 14.6885 41.2516 10.8486 39.7813C7.03733 38.2539 3.31169 36.4696 0 34.0572Z" fill="#292F36"/>
<path d="M136.507 10.2902C133.324 8.93412 130.084 7.8778 126.801 7.04988C123.532 6.17913 120.22 5.56533 116.894 5.1371C115.238 4.88015 113.554 4.82306 111.898 4.62321C110.228 4.58039 108.572 4.40909 106.902 4.48047C106.074 4.49474 105.232 4.49474 104.404 4.48047C103.576 4.48047 102.734 4.56611 101.906 4.59466C101.078 4.65176 100.236 4.66604 99.4079 4.75168L96.9242 5.05145C93.5982 5.32266 90.3722 6.00784 87.1461 6.85004C83.8773 7.63514 80.7797 8.74855 77.4823 9.86197C74.0992 10.9896 70.4306 11.6748 66.7478 11.1609C64.9349 10.8612 63.1078 10.2188 61.6661 9.07686C60.1958 7.94918 59.1966 6.40753 58.5828 4.7945C59.5963 6.20768 60.8524 7.36392 62.2942 8.07765C63.7359 8.79138 65.3203 9.09114 66.9048 9.07686C70.1023 9.07686 73.2713 8.0491 76.2689 6.76439C79.3237 5.30839 82.6782 4.02368 86.0184 2.96737C89.3872 1.95387 92.8987 1.18305 96.4103 0.811915C103.419 0.0696395 110.585 0.240934 117.451 1.86823C120.891 2.59623 124.246 3.70964 127.457 5.08C130.683 6.4789 133.795 8.1062 136.507 10.2902Z" fill="#292F36"/>
</g>
<defs>
<clipPath id="clip0_2_190">
<rect width="145" height="45" fill="white" transform="translate(0 0.390625)"/>
</clipPath>
</defs>
</svg>
