<svg width="164" height="44" viewBox="0 0 164 44" fill="none" xmlns="http://www.w3.org/2000/svg">
<g clip-path="url(#clip0_2_183)">
<path d="M34.7971 43.1666H7.97888C3.57173 43.1666 0 39.5949 0 35.1877V8.36951C0 3.96237 3.57173 0.390625 7.97888 0.390625H34.7971C39.2043 0.390625 42.776 3.96237 42.776 8.36951V35.1877C42.776 39.5949 39.2043 43.1666 34.7971 43.1666Z" fill="#292F36"/>
<path d="M29.0944 22.1721C29.8572 23.1286 30.2446 24.2425 30.2446 25.5017C30.2446 27.3541 29.6271 28.807 28.3922 29.8362C27.1572 30.8653 25.3895 31.3981 23.0891 31.3981H13.0398V9.78607H22.8469C25.0505 9.78607 26.7456 10.2704 27.9442 11.2268C29.1429 12.1833 29.7482 13.5515 29.7482 15.3192C29.7482 16.6268 29.3971 17.7044 28.707 18.5761C28.0169 19.4479 27.1088 20.0048 25.9828 20.2712C27.3025 20.586 28.3316 21.2156 29.0944 22.1721ZM18.2582 18.6246H21.6846C23.5007 18.6246 24.4088 17.8497 24.4088 16.2999C24.4088 14.7502 23.4765 13.9753 21.6241 13.9753H18.2582V18.6246ZM24.8931 24.7752C24.8931 24.0003 24.6388 23.395 24.1303 22.9591C23.6218 22.5232 22.8953 22.3053 21.9631 22.3053H18.2703V27.1604H21.9994C23.9245 27.1483 24.8931 26.3613 24.8931 24.7752Z" fill="white"/>
<path d="M67.5603 31.3981L62.8867 23.2375H61.7002V31.3981H56.4697V9.78607H65.393C67.1002 9.78607 68.5531 10.0767 69.7275 10.6699C70.9141 11.2632 71.7979 12.0744 72.3912 13.1035C72.9844 14.1327 73.275 15.3071 73.275 16.6389C73.275 18.2129 72.8391 19.5447 71.9795 20.6465C71.1078 21.7483 69.8607 22.499 68.202 22.9107L73.3356 31.4102H67.5603V31.3981ZM61.7002 19.6658H64.9329C65.9742 19.6658 66.7369 19.4358 67.2212 18.9757C67.7056 18.5156 67.9598 17.8376 67.9598 16.9416C67.9598 16.082 67.7055 15.4161 67.2091 14.9197C66.7127 14.4353 65.9499 14.1811 64.9329 14.1811H61.7002V19.6658Z" fill="#292F36"/>
<path d="M96.9332 27.4631H88.8332L87.4893 31.4101H81.9924L89.9108 9.95557H95.9282L103.847 31.4101H98.2892L96.9332 27.4631ZM95.5892 23.4797L92.9014 15.5371L90.1772 23.4797H95.5892Z" fill="#292F36"/>
<path d="M132.699 31.3981H127.468L118.727 18.1282V31.3981H113.496V9.78607H118.727L127.468 23.177V9.78607H132.699V31.3981Z" fill="#292F36"/>
<path d="M162.023 26.1918C161.115 27.8264 159.808 29.1098 158.113 30.0299C156.405 30.9501 154.408 31.4102 152.107 31.4102H143.947V9.79822H152.107C154.432 9.79822 156.442 10.2462 158.125 11.1421C159.82 12.0381 161.115 13.2973 162.023 14.9318C162.931 16.5663 163.379 18.4309 163.379 20.5618C163.379 22.6685 162.919 24.5452 162.023 26.1918ZM156.393 25.1021C157.519 24.0246 158.088 22.499 158.088 20.5497C158.088 18.5883 157.519 17.0748 156.393 15.9973C155.267 14.9197 153.681 14.3749 151.635 14.3749H149.165V26.7246H151.635C153.681 26.7246 155.267 26.1918 156.393 25.1021Z" fill="#292F36"/>
</g>
<defs>
<clipPath id="clip0_2_183">
<rect width="164" height="43" fill="white" transform="translate(0 0.390625)"/>
</clipPath>
</defs>
</svg>
